{"title":"Madtown (2018) HDRip H264 MPEG-4 AAC Spy1984","magnet":"magnet:?xt=urn:btih:a2083f70089ab16bbf9164a5d1c2f29e68d3c371&dn=Madtown+%282018%29+HDRip+H264+MPEG-4+AAC+Spy1984&tr=udp%3A%2F%2Ftracker.leechers-paradise.org%3A6969&tr=udp%3A%2F%2Fzer0day.ch%3A1337&tr=udp%3A%2F%2Fopen.demonii.com%3A1337&tr=udp%3A%2F%2Ftracker.coppersurfer.tk%3A6969&tr=udp%3A%2F%2Fexodus.desync.com%3A6969","uploader":"spy1984","categoryP":"video","categoryS":"hd___movies","size":"622209159","seeders":"2","leechers":"111","description":"A troubled young man, Briggs (Ventimiglia), flashes back to the demons of his past when his sister is released from her twenty-year prison sentence for the murder of their parents. Briggs must confront his estranged sister and deal with the past, while fighting to protect his future and the life he has rebuilt for himself.\r\n <a href=\"\nhttp://www.4kw.in/4691.html\" rel=\"nofollow\" target=\"_NEW\">\nhttp://www.4kw.in/4691.html</a>\r\n <a href=\"\nhttp://www.4kw.in/4692.html\" rel=\"nofollow\" target=\"_NEW\">\nhttp://www.4kw.in/4692.html</a>\r\n <a href=\"\nhttp://www.4kw.in/4693.html\" rel=\"nofollow\" target=\"_NEW\">\nhttp://www.4kw.in/4693.html</a>\r\n <a href=\"\nhttp://www.4kw.in/4694.html\" rel=\"nofollow\" target=\"_NEW\">\nhttp://www.4kw.in/4694.html</a>\r\n\r\n\r\nGeneral\r\n\r\n\r\nFormat                                   : MPEG-4\r\nFormat profile                           : Base Media\r\nCodec ID                                 : isom (isom/iso2/avc1/mp41)\r\nFile size                                : 593 MiB\r\nDuration                                 : 1 h 52 min\r\nOverall bit rate                         : 739 kb/s\r\nWriting application                      : Lavf57.83.100\r\n\r\n\r\nVideo\r\n\r\n\r\nID                                       : 1\r\nFormat                                   : AVC\r\nFormat/Info                              : Advanced Video Codec\r\nFormat profile                           : <a href=\"/cdn-cgi/l/email-protection\" class=\"__cf_email__\" data-cfemail=\"4d05242a250d017e637c\">[email&#xA0;protected]</a>\r\nFormat settings                          : CABAC / 5 Ref Frames\r\nFormat settings, CABAC                   : Yes\r\nFormat settings, RefFrames               : 5 frames\r\nCodec ID                                 : avc1\r\nCodec ID/Info                            : Advanced Video Coding\r\nDuration                                 : 1 h 52 min\r\nSource duration                          : 4 min 50 s\r\nBit rate                                 : 640 kb/s\r\nWidth                                    : 720 pixels\r\nHeight                                   : 352 pixels\r\nDisplay aspect ratio                     : 2.045\r\nFrame rate mode                          : Constant\r\nFrame rate                               : 23.976 FPS\r\nColor space                              : YUV\r\nChroma subsampling                       : 4:2:0\r\nBit depth                                : 8 bits\r\nScan type                                : Progressive\r\nBits/(Pixel*Frame)                       : 0.105\r\nStream size                              : 512 MiB (86%)\r\nSource stream size                       : 512 MiB (86%)\r\n\r\nID                                       : 2\r\nFormat                                   : AAC\r\nFormat/Info                              : Advanced Audio Codec\r\nFormat profile                           : LC\r\nCodec ID                                 : mp4a-40-2\r\nDuration                                 : 1 h 52 min\r\nBit rate mode                            : Constant\r\nBit rate                                 : 96.0 kb/s\r\nChannel(s)                               : 2 channels\r\nChannel positions                        : Front: L R\r\nSampling rate                            : 48.0 kHz\r\nFrame rate                               : 46.875 FPS (1024 SPF)\r\nCompression mode                         : Lossy\r\nStream size                              : 78.1 MiB (13%)\r\nDefault                                  : Yes\r\nAlternate group                          : 1","last_updated":"2018-01-07T12:05:47.009Z","parsed":{"xt":"urn:btih:a2083f70089ab16bbf9164a5d1c2f29e68d3c371","dn":"Madtown (2018) HDRip H264 MPEG-4 AAC Spy1984","tr":["udp://exodus.desync.com:6969","udp://open.demonii.com:1337","udp://tracker.coppersurfer.tk:6969","udp://tracker.leechers-paradise.org:6969","udp://zer0day.ch:1337"],"infoHash":"a2083f70089ab16bbf9164a5d1c2f29e68d3c371","infoHashBuffer":{"type":"Buffer","data":[162,8,63,112,8,154,177,107,191,145,100,165,209,194,242,158,104,211,195,113]},"name":"Madtown (2018) HDRip H264 MPEG-4 AAC Spy1984","announce":["udp://exodus.desync.com:6969","udp://open.demonii.com:1337","udp://tracker.coppersurfer.tk:6969","udp://tracker.leechers-paradise.org:6969","udp://zer0day.ch:1337"],"urlList":[]}}